<svg width="24" height="24" viewBox="0 0 24 24" fill="none" xmlns="http://www.w3.org/2000/svg">
<path fill-rule="evenodd" clip-rule="evenodd" d="M1.5 12C1.5 12.1989 1.57902 12.3896 1.71967 12.5303C1.86032 12.671 2.05109 12.75 2.25 12.75H19.9395L15.219 17.469C15.0782 17.6098 14.9991 17.8008 14.9991 18C14.9991 18.1991 15.0782 18.3901 15.219 18.531C15.3598 18.6718 15.5508 18.7509 15.75 18.7509C15.9492 18.7509 16.1402 18.6718 16.281 18.531L22.281 12.531C22.3508 12.4613 22.4063 12.3785 22.4441 12.2874C22.4819 12.1963 22.5013 12.0986 22.5013 12C22.5013 11.9013 22.4819 11.8036 22.4441 11.7125C22.4063 11.6214 22.3508 11.5386 22.281 11.469L16.281 5.46897C16.2113 5.39924 16.1285 5.34392 16.0374 5.30619C15.9463 5.26845 15.8486 5.24902 15.75 5.24902C15.5508 5.24902 15.3598 5.32814 15.219 5.46897C15.0782 5.6098 14.9991 5.80081 14.9991 5.99997C14.9991 6.19913 15.0782 6.39014 15.219 6.53097L19.9395 11.25H2.25C2.05109 11.25 1.86032 11.329 1.71967 11.4696C1.57902 11.6103 1.5 11.8011 1.5 12Z" fill="#FF6333"/>
</svg>
